<svg xmlns="http://www.w3.org/2000/svg" viewBox="0 0 48 48" width="18" height="18">
  <path fill="#EA4335" d="M24 9.5c3.9 0 7.1 1.4 9.3 3.4l7-7C36.6 2.4 30.7 0 24 0 14.7 0 6.9 5.6 3.2 13.5l8.2 6.4C12.9 14.1 18 9.5 24 9.5z"/>
  <path fill="#34A853" d="M46.5 24.5c0-1.6-.1-3.1-.4-4.5H24v8.6h12.7c-.6 3.5-3 6.4-6.3 8.2l9 6.9C43.8 39.2 46.5 32.6 46.5 24.5z"/>
  <path fill="#4A90E2" d="M11.4 29.9C10.3 27.7 9.7 25.2 9.7 22.5s.6-5.2 1.7-7.4L3.2 8.7C1.1 12.5 0 17.1 0 22.5s1.1 10 3.2 13.8l8.2-6.4z"/>
  <path fill="#FBBC05" d="M24 48c6.7 0 12.6-2.2 16.8-6l-9-6.9C31.1 35.8 27.9 37 24 37c-6 0-11.1-4.6-12.9-10.8L3.9 32.6C7.6 40.5 14.4 46.1 24 48z"/>
  <path fill="none" d="M0 0h48v48H0z"/>
</svg>
